<?xml version="1.0" standalone="no"?>
<!DOCTYPE svg PUBLIC "-//W3C//DTD SVG 20010904//EN"
 "http://www.w3.org/TR/2001/REC-SVG-20010904/DTD/svg10.dtd">
<svg version="1.0" xmlns="http://www.w3.org/2000/svg"
 width="1200.000000pt" height="1200.000000pt" viewBox="0 0 1200.000000 1200.000000"
 preserveAspectRatio="xMidYMid meet">

<g transform="translate(0.000000,1200.000000) scale(0.100000,-0.100000)"
fill="#000000" stroke="none">
<path d="M5755 8539 c-872 -84 -1654 -625 -2039 -1413 -128 -261 -207 -517
-242 -788 l-18 -138 -48 0 -48 0 0 -335 0 -334 66 -3 67 -3 22 -100 c81 -357
253 -717 483 -1010 81 -102 272 -294 389 -391 342 -283 770 -475 1228 -551
159 -26 622 -26 780 0 551 92 1025 336 1415 727 351 352 576 761 684 1243 58
260 74 608 40 875 -9 73 -14 135 -12 138 3 2 601 150 1329 329 728 178 1339
331 1356 339 55 26 57 103 5 130 -27 14 -108 -5 -1368 -315 -736 -181 -1344
-329 -1349 -329 -6 0 -26 48 -44 108 -178 588 -544 1080 -1049 1414 -478 315
-1072 462 -1647 407z m605 -64 c420 -64 817 -231 1157 -487 125 -93 334 -296
433 -419 156 -195 292 -428 383 -659 48 -121 104 -306 96 -315 -5 -4 -2579
-640 -2883 -712 -67 -15 -116 -33 -128 -45 -28 -28 -21 -85 14 -111 l26 -20
1501 369 c825 202 1503 366 1505 363 16 -15 37 -266 37 -434 0 -189 -9 -310
-36 -457 -199 -1082 -1076 -1904 -2177 -2038 -147 -18 -574 -7 -708 18 -410
77 -766 233 -1087 473 -126 95 -334 297 -436 424 -231 287 -406 643 -491 1000
l-23 100 23 3 24 3 0 222 0 222 33 23 c21 14 48 22 75 22 63 0 66 -10 70 -267
l4 -223 115 0 115 0 -4 258 c-3 253 -4 258 -30 314 -38 82 -88 113 -182 113
-57 -1 -81 -6 -122 -27 -27 -15 -56 -34 -63 -42 -21 -26 -38 -19 -45 19 -5 26
-12 35 -26 35 -23 0 -24 8 -10 117 103 771 544 1439 1211 1834 293 174 639
292 959 328 52 6 109 13 125 15 66 10 445 -4 545 -19z"/>
<path d="M4550 6309 l0 -150 -27 19 c-92 64 -214 48 -302 -40 -19 -18 -48 -62
-65 -98 -29 -61 -31 -72 -30 -175 1 -203 72 -317 217 -347 48 -10 64 -9 111 5
31 10 69 29 86 43 l30 26 11 -31 11 -31 94 0 94 0 0 465 0 465 -115 0 -115 0
0 -151z m-15 -299 c12 -10 15 -38 15 -140 0 -127 0 -129 -26 -149 -38 -30 -98
-28 -128 4 -27 29 -36 65 -36 146 0 66 12 104 43 137 19 20 29 23 69 19 26 -2
54 -10 63 -17z"/>
<path d="M2100 6404 c-211 -57 -291 -278 -153 -425 37 -40 65 -56 166 -99 155
-65 167 -73 167 -110 0 -79 -147 -81 -264 -4 -32 21 -40 24 -50 12 -97 -108
-118 -139 -105 -154 19 -24 89 -62 154 -84 254 -87 505 37 505 251 0 89 -36
159 -104 203 -21 14 -93 47 -159 73 -132 52 -158 75 -139 118 6 14 23 27 38
31 42 11 128 -3 175 -27 24 -13 47 -24 51 -24 7 0 108 125 108 135 0 12 -44
47 -87 69 -99 49 -204 62 -303 35z"/>
<path d="M2845 6207 c-102 -34 -178 -107 -214 -203 -43 -113 -24 -271 41 -361
75 -101 217 -151 353 -123 56 11 175 57 175 67 0 14 -73 133 -81 133 -6 0 -24
-8 -42 -17 -44 -23 -146 -22 -181 1 -25 16 -66 71 -66 89 0 4 88 7 195 7 l195
0 1 43 c5 141 -16 218 -78 287 -24 27 -61 55 -85 65 -57 22 -163 28 -213 12z
m157 -185 c9 -10 20 -29 23 -44 l7 -28 -101 0 c-113 0 -120 6 -76 59 37 43
109 50 147 13z"/>
</g>
</svg>
