<?xml version="1.0" standalone="no"?>
<!DOCTYPE svg PUBLIC "-//W3C//DTD SVG 20010904//EN"
 "http://www.w3.org/TR/2001/REC-SVG-20010904/DTD/svg10.dtd">
<svg version="1.0" xmlns="http://www.w3.org/2000/svg"
 width="1200.000000pt" height="1200.000000pt" viewBox="0 0 1200.000000 1200.000000"
 preserveAspectRatio="xMidYMid meet">

<g transform="translate(0.000000,1200.000000) scale(0.100000,-0.100000)"
fill="#000000" stroke="none">
<path d="M5755 8539 c-872 -84 -1654 -625 -2039 -1413 -124 -252 -204 -508
-243 -781 -21 -150 -24 -525 -4 -665 65 -474 246 -905 529 -1265 81 -102 272
-294 389 -391 342 -283 770 -475 1228 -551 159 -26 622 -26 780 0 551 92 1025
336 1415 727 351 352 576 761 684 1243 58 260 74 608 40 875 -9 73 -14 135
-12 138 3 2 601 150 1329 329 728 178 1339 331 1356 339 55 26 57 103 5 130
-27 14 -108 -5 -1368 -315 -736 -181 -1344 -329 -1349 -329 -6 0 -26 48 -44
108 -178 588 -544 1080 -1049 1414 -478 315 -1072 462 -1647 407z m605 -64
c420 -64 817 -231 1157 -487 125 -93 334 -296 433 -419 156 -195 292 -428 383
-659 48 -121 104 -306 96 -315 -5 -4 -2579 -640 -2883 -712 -67 -15 -116 -33
-128 -45 -28 -28 -21 -85 14 -111 l26 -20 1501 369 c825 202 1503 366 1505
363 16 -15 37 -266 37 -434 0 -189 -9 -310 -36 -457 -199 -1082 -1076 -1904
-2177 -2038 -147 -18 -574 -7 -708 18 -410 77 -766 233 -1087 473 -126 95
-334 297 -436 424 -264 328 -450 738 -521 1149 -9 49 -14 91 -13 92 2 2 18
-18 38 -44 25 -34 54 -57 103 -82 64 -32 76 -35 160 -35 78 0 99 4 146 27 89
43 87 37 40 114 -23 38 -44 71 -46 73 -3 3 -18 -3 -35 -13 -39 -23 -107 -24
-141 -2 -52 34 -80 135 -59 212 23 85 98 127 172 97 22 -8 41 -14 43 -12 21
26 96 135 96 140 0 4 -24 19 -52 33 -173 85 -401 1 -478 -176 -13 -28 -5 202
10 319 103 771 544 1439 1211 1834 293 174 639 292 959 328 52 6 109 13 125
15 66 10 445 -4 545 -19z"/>
<path d="M4160 5985 l0 -465 115 0 115 0 0 83 c1 79 2 84 35 120 l33 38 68
-120 68 -121 123 0 c68 0 123 2 123 4 0 3 -56 91 -125 196 l-126 191 97 112
c54 62 109 124 122 140 l26 27 -126 0 -126 0 -94 -116 -93 -115 -3 245 -2 246
-115 0 -115 0 0 -465z"/>
<path d="M3184 6486 c-43 -19 -64 -53 -64 -104 0 -35 6 -49 28 -72 53 -53 158
-49 201 7 26 32 28 99 5 132 -33 46 -110 63 -170 37z"/>
<path d="M2720 6072 c0 -317 3 -387 16 -432 30 -102 109 -148 229 -136 32 3
63 10 67 14 5 5 3 43 -4 85 -9 62 -15 77 -29 77 -10 0 -25 10 -33 22 -14 19
-16 73 -16 385 l0 363 -115 0 -115 0 0 -378z"/>
<path d="M2231 6395 c-236 -66 -363 -301 -307 -566 37 -175 149 -285 324 -319
91 -18 173 -7 257 34 39 19 81 46 94 60 l24 25 -59 68 c-32 37 -59 69 -60 71
-1 2 -22 -11 -47 -29 -82 -57 -187 -50 -246 17 -64 72 -81 248 -33 340 24 48
81 101 118 110 43 11 113 -2 154 -30 l39 -26 61 73 61 72 -28 23 c-91 76 -239
108 -352 77z"/>
<path d="M3130 5855 l0 -335 115 0 115 0 0 335 0 335 -115 0 -115 0 0 -335z"/>
</g>
</svg>
