<?xml version="1.0" standalone="no"?>
<!DOCTYPE svg PUBLIC "-//W3C//DTD SVG 20010904//EN"
 "http://www.w3.org/TR/2001/REC-SVG-20010904/DTD/svg10.dtd">
<svg version="1.0" xmlns="http://www.w3.org/2000/svg"
 width="300.000000pt" height="150.000000pt" viewBox="0 0 300.000000 150.000000"
 preserveAspectRatio="xMidYMid meet">

<g transform="translate(0.000000,150.000000) scale(0.100000,-0.100000)"
fill="#000000" stroke="none">
<path d="M1135 1486 c-257 -60 -460 -243 -542 -491 -23 -71 -26 -96 -27 -220
0 -126 3 -148 27 -220 38 -115 91 -199 182 -290 91 -91 175 -144 290 -182 71
-24 95 -27 220 -27 125 0 149 3 220 27 115 38 199 91 290 182 91 91 144 175
182 290 24 71 27 95 26 220 0 102 -4 154 -16 190 -9 27 -15 50 -14 51 1 1 221
89 490 195 268 106 487 196 487 199 0 4 -6 13 -12 22 -12 15 -65 -4 -498 -177
l-485 -192 -27 48 c-92 170 -245 298 -425 356 -97 31 -274 40 -368 19z m328
-41 c118 -31 205 -83 303 -180 89 -88 165 -199 148 -215 -5 -4 -178 -74 -384
-155 -206 -81 -382 -152 -392 -156 -17 -9 -14 -49 3 -49 5 0 185 70 400 155
215 85 394 153 399 150 18 -11 34 -116 34 -220 0 -129 -17 -205 -71 -315 -53
-106 -197 -250 -303 -303 -180 -89 -395 -98 -576 -25 -190 77 -361 270 -410
463 -6 23 -4 25 27 25 19 0 40 4 47 8 19 13 4 41 -19 35 -25 -7 -49 14 -49 42
0 27 24 49 44 42 8 -3 20 1 27 9 10 13 10 17 -2 25 -19 12 -56 11 -81 -2 -20
-11 -20 -9 -13 63 12 122 61 251 127 338 39 52 134 142 183 174 69 46 167 86
250 102 83 16 225 11 308 -11z"/>
<path d="M740 740 l0 -120 25 0 c18 0 25 5 25 19 0 10 6 24 14 30 12 10 18 6
32 -18 14 -23 26 -31 47 -31 l28 0 -31 44 c-16 25 -30 47 -30 51 0 3 12 22 26
41 l26 34 -25 0 c-16 0 -35 -11 -50 -30 -14 -16 -28 -30 -31 -30 -3 0 -6 29
-6 65 0 63 -1 65 -25 65 l-25 0 0 -120z"/>
<path d="M484 845 c-4 -9 -2 -21 4 -27 16 -16 47 -5 47 17 0 26 -42 34 -51 10z"/>
<path d="M380 752 c0 -111 10 -136 53 -130 26 3 27 4 12 32 -10 18 -15 57 -15
112 0 83 0 84 -25 84 -25 0 -25 0 -25 -98z"/>
<path d="M199 811 c-25 -25 -29 -37 -29 -81 0 -44 4 -56 29 -81 24 -23 38 -29
74 -29 52 0 78 20 57 45 -9 11 -16 13 -24 5 -17 -17 -54 -11 -70 12 -21 29
-20 67 0 97 14 19 23 22 50 18 41 -7 66 16 35 32 -38 21 -90 13 -122 -18z"/>
<path d="M480 705 c0 -84 0 -85 25 -85 25 0 25 1 25 85 0 84 0 85 -25 85 -25
0 -25 -1 -25 -85z"/>
</g>
</svg>
