<?xml version="1.0" standalone="no"?>
<!DOCTYPE svg PUBLIC "-//W3C//DTD SVG 20010904//EN"
 "http://www.w3.org/TR/2001/REC-SVG-20010904/DTD/svg10.dtd">
<svg version="1.0" xmlns="http://www.w3.org/2000/svg"
 width="30.000000pt" height="30.000000pt" viewBox="0 0 30.000000 30.000000"
 preserveAspectRatio="xMidYMid meet">

<g transform="translate(0.000000,30.000000) scale(0.100000,-0.100000)"
fill="#000000" stroke="none">
<path d="M81 256 c-28 -16 -50 -52 -51 -84 -1 -72 80 -124 142 -91 17 9 25 6
54 -22 44 -43 58 -29 15 15 -28 29 -31 37 -22 54 44 83 -54 174 -138 128z
m104 -31 c33 -32 33 -78 0 -110 -49 -50 -135 -15 -135 55 0 41 39 80 80 80 19
0 40 -9 55 -25z"/>
</g>
</svg>
