<?xml version="1.0" standalone="no"?>
<!DOCTYPE svg PUBLIC "-//W3C//DTD SVG 20010904//EN"
 "http://www.w3.org/TR/2001/REC-SVG-20010904/DTD/svg10.dtd">
<svg version="1.0" xmlns="http://www.w3.org/2000/svg"
 width="300.000000pt" height="150.000000pt" viewBox="0 0 300.000000 150.000000"
 preserveAspectRatio="xMidYMid meet">

<g transform="translate(0.000000,150.000000) scale(0.100000,-0.100000)"
fill="#000000" stroke="none">
<path d="M1135 1486 c-257 -60 -460 -243 -542 -491 -24 -71 -27 -95 -27 -220
0 -125 3 -149 27 -220 38 -115 91 -199 182 -290 91 -91 175 -144 290 -182 71
-24 95 -27 220 -27 125 0 149 3 220 27 115 38 199 91 290 182 91 91 144 175
182 290 24 71 27 95 26 220 0 102 -4 154 -16 190 -9 27 -15 50 -14 51 1 1 221
89 490 195 268 106 487 196 487 199 0 4 -6 13 -12 22 -12 15 -65 -4 -498 -177
l-485 -192 -27 48 c-92 170 -245 298 -425 356 -97 31 -274 40 -368 19z m328
-41 c118 -31 205 -83 303 -180 89 -88 165 -199 148 -215 -5 -4 -178 -74 -384
-155 -206 -81 -382 -152 -392 -156 -17 -9 -14 -49 3 -49 5 0 185 70 400 155
215 85 394 153 399 150 18 -11 34 -116 34 -220 0 -129 -17 -205 -71 -315 -53
-106 -197 -250 -303 -303 -224 -110 -491 -97 -690 35 -114 76 -228 215 -271
328 -31 82 -35 110 -15 110 13 0 16 11 16 59 0 45 4 60 16 65 27 10 34 -3 34
-65 0 -56 1 -59 25 -59 24 0 25 2 25 69 0 90 -26 120 -80 91 -12 -7 -27 -7
-45 0 -24 9 -25 12 -20 62 13 113 65 247 127 328 39 52 134 142 183 174 69 46
167 86 250 102 83 16 225 11 308 -11z"/>
<path d="M890 831 c0 -40 0 -40 -34 -34 -68 11 -104 -75 -60 -144 12 -19 22
-21 79 -21 l65 1 0 119 0 118 -25 0 c-22 0 -25 -4 -25 -39z m-5 -116 c0 -33
-4 -41 -22 -43 -25 -4 -38 26 -29 64 5 19 12 25 29 22 18 -3 22 -9 22 -43z"/>
<path d="M220 825 c-34 -37 -19 -73 43 -102 26 -13 47 -27 47 -33 0 -18 -31
-24 -61 -13 -22 9 -31 8 -41 -4 -20 -24 17 -44 76 -41 40 2 53 8 69 30 29 38
12 72 -48 98 -59 25 -63 55 -6 46 27 -4 42 -2 50 8 16 20 -14 36 -67 36 -28 0
-45 -7 -62 -25z"/>
<path d="M424 776 c-21 -18 -28 -32 -28 -61 0 -62 54 -97 122 -79 39 11 23 38
-22 38 -22 1 -41 7 -43 14 -3 8 10 12 46 12 50 0 51 1 51 29 0 34 -39 71 -76
71 -12 0 -35 -11 -50 -24z m76 -31 c0 -9 -9 -15 -25 -15 -24 0 -32 10 -18 23
12 13 43 7 43 -8z"/>
</g>
</svg>
